<?xml version="1.0" encoding="utf-8"?>
<!-- Generator: Adobe Illustrator 21.0.0, SVG Export Plug-In . SVG Version: 6.00 Build 0)  -->
<svg version="1.1" id="Calque_1" xmlns="http://www.w3.org/2000/svg" xmlns:xlink="http://www.w3.org/1999/xlink" x="0px" y="0px"
	 viewBox="0 0 120 120" style="enable-background:new 0 0 120 120;" xml:space="preserve">
<style type="text/css">
	.st0{fill:#FFFFFF;}
</style>
<g>
	<path d="M36.8,53.5c-0.7-3.1-1.3-6.1-2-9c-1.6-7-3.4-13.9-4.9-20.9c-0.9-4.2-1-8.6-0.2-12.8C30.5,6.8,32.6,4,36.6,3
		c4.2-1.1,7.9-0.2,10.9,3.1c2.3,2.6,3.7,5.7,5,8.9c1.9,4.6,2.8,9.4,3.5,14.2c0.2,0.9,0.3,1.9,0.5,2.9c6.8-5.2,15.5-4,19.4,2.8
		c0.5-0.5,1-1,1.6-1.5c2.1-1.9,4.7-2.5,7.5-2.7c4.1-0.3,7.7,0.6,10.5,3.8c1.1,1.2,1.7,2.6,2.2,4.1c0.2,0.5,0.3,1.1,0.5,1.7
		c0.4-0.3,0.7-0.5,1-0.7c4.4-3.1,10.6-2.3,13.6,1.8c1.4,1.9,2,4.1,2.1,6.4c0.3,6.3,0.2,12.6-0.3,18.9c-0.6,7.2-2.1,14.1-6.2,20.2
		c-1.3,1.9-2.8,3.6-4.2,5.4c-0.9,1.2-1.6,2.4-2.5,3.6c-1.6,2.2-2.1,4.8-2.2,7.4c-0.1,2.7,0,5.4,0.7,8c0.4,1.5-0.5,3.1-2,3.2
		c-3,0.2-6.1,0.4-9.1,0.4c-1.8,0-3.4-1-4.5-2.3c-1.6-1.9-3-3.9-4.5-5.9c-0.2-0.3-0.3-0.5-0.6-0.9c-0.4,0.6-0.7,1.2-1.1,1.7
		c-1.2,1.5-2.3,3.1-3.5,4.5c-1.8,2.2-4.2,3.2-7.1,3.2c-6.7,0-13.4,0-20.1-0.1c-1.6,0-2.7-1.2-2.6-2.8c0.1-1.3,0.2-2.6,0.2-4
		c0-1.7-0.5-3-1.8-4.2c-4.7-4.1-9.1-8.5-13.1-13.3c-1.1-1.3-2-2.7-2.8-4.2c-3.7-6.6-8-12.7-12.9-18.5c-1.6-1.9-3.1-4-4.2-6.2
		c-2.3-4.4-1.4-9.9,1.9-13.5c3.3-3.6,8.6-4.9,13.4-3c4,1.5,7.2,4.2,10.1,7.3c0.2,0.3,0.5,0.5,0.7,0.8C36.5,53.4,36.5,53.4,36.8,53.5
		z M94.1,109.5c0-2,0-3.8,0-5.6c0-4.3,1-8.2,3.6-11.7c1.4-2,2.8-4,4.3-5.8c3.3-4,5.6-8.6,6.4-13.7c0.6-3.8,1-7.6,1.2-11.4
		c0.2-4.6,0.1-9.2-0.1-13.8c0-1.9-0.8-3.6-2.8-4.3c-2.3-0.8-5.1,0.4-6.1,2.6c-0.5,1.2-0.8,2.4-1.2,3.6c-0.4,1.3-1.3,2-2.5,2
		c-1.7,0.1-2.6-0.9-2.9-2.9c-0.5-2.9-1.1-5.7-1.6-8.6c-0.4-2-3-4-4.9-3.9c-1.4,0-2.9-0.1-4.2,0.2c-1.9,0.4-3.4,1.4-3.8,3.5
		c-0.2,1.1-0.4,2.3-0.5,3.4c-0.3,1.9-0.4,3.8-0.7,5.7c-0.2,1.3-1.4,2-2.7,1.9c-1.3-0.1-2.2-1-2.4-2.3c-0.1-0.6-0.1-1.2-0.2-1.8
		c-0.2-3-0.6-6-1.6-8.9c-0.5-1.3-1.3-2.2-2.5-2.8c-2-1.1-4-1-6.1-0.5c-2,0.5-3.4,2-3.6,4.1c-0.1,1-0.1,2.1-0.1,3.1
		c0,2.3,0.1,4.5,0.1,6.8c0,1.4-1.1,2.4-2.4,2.4c-1.4,0.1-2.5-0.8-2.7-2.2c-0.2-1-0.3-1.9-0.4-2.9c-1-5.9-2.1-11.8-3.1-17.7
		c-0.9-5.1-2.1-10.2-4.6-14.8c-0.8-1.4-1.7-2.8-2.7-4c-1.4-1.6-3.4-1.6-5.3-1.1c-1.8,0.5-2.6,1.8-2.9,3.5c-0.7,3.1-0.6,6.3,0,9.4
		c0.9,4.8,1.8,9.6,3,14.3c2.5,9,4.3,18.1,5.7,27.3c0.2,1.4-0.3,2.7-1.5,3.2c-1.2,0.6-2.4,0.2-3.4-0.9c-0.3-0.3-0.5-0.7-0.7-1
		c-2.1-2.7-4.1-5.5-6.4-8.1c-2.2-2.5-4.9-4.6-8.1-5.8c-2.8-1-5.6-0.2-7.5,1.9c-1.4,1.6-2.2,5.3-0.8,7.6c1.1,1.7,2.2,3.5,3.5,5.1
		c4.8,5.7,9.1,11.7,12.7,18.2c0.9,1.6,1.8,3.2,3,4.6c3.9,4.7,8.2,8.9,12.8,12.9c1.8,1.6,2.8,3.6,3.1,6c0.1,1.1,0.2,2.3,0.2,3.5
		c0.6,0,1.1,0,1.6,0c5.1,0,10.3,0,15.4,0c1.3,0,2.4-0.4,3.3-1.5c1.3-1.7,2.5-3.4,3.8-5c0.4-0.6,0.8-1.2,1.3-1.6
		c2.6-2.3,6.3-1.5,8.1,1.5c1.1,1.8,2.4,3.5,3.7,5.2c0.4,0.6,1.2,1.1,1.9,1.2C91.1,109.6,92.7,109.5,94.1,109.5z"/>
	<path class="st0" d="M94.1,109.5c-1.4,0-3,0.1-4.5-0.1c-0.7-0.1-1.4-0.7-1.9-1.2c-1.3-1.7-2.6-3.4-3.7-5.2c-1.8-3-5.5-3.7-8.1-1.5
		c-0.5,0.5-0.9,1.1-1.3,1.6c-1.3,1.7-2.5,3.4-3.8,5c-0.8,1.1-1.9,1.5-3.3,1.5c-5.1,0-10.3,0-15.4,0c-0.5,0-1.1,0-1.6,0
		c-0.1-1.2-0.1-2.3-0.2-3.5c-0.3-2.4-1.3-4.3-3.1-6c-4.5-4-8.9-8.2-12.8-12.9c-1.2-1.4-2.1-3-3-4.6c-3.6-6.5-8-12.5-12.7-18.2
		c-1.3-1.6-2.4-3.3-3.5-5.1c-1.4-2.2-0.6-6,0.8-7.6c1.9-2.1,4.8-2.9,7.5-1.9c3.2,1.2,5.9,3.2,8.1,5.8c2.2,2.6,4.2,5.4,6.4,8.1
		c0.3,0.3,0.5,0.7,0.7,1c1,1.1,2.2,1.4,3.4,0.9c1.1-0.5,1.7-1.8,1.5-3.2c-1.3-9.2-3.2-18.3-5.7-27.3c-1.3-4.7-2.2-9.5-3-14.3
		c-0.6-3.1-0.6-6.3,0-9.4c0.4-1.7,1.1-3.1,2.9-3.5c2-0.5,3.9-0.5,5.3,1.1c1.1,1.2,2,2.6,2.7,4c2.5,4.6,3.7,9.7,4.6,14.8
		c1,5.9,2.1,11.8,3.1,17.7c0.2,1,0.3,1.9,0.4,2.9c0.2,1.4,1.3,2.3,2.7,2.2c1.3,0,2.4-1,2.4-2.4c0-2.3-0.1-4.5-0.1-6.8
		c0-1,0-2.1,0.1-3.1c0.2-2.1,1.6-3.6,3.6-4.1c2.1-0.5,4.1-0.5,6.1,0.5c1.2,0.6,2,1.5,2.5,2.8c1,2.9,1.4,5.9,1.6,8.9
		c0,0.6,0.1,1.2,0.2,1.8c0.2,1.3,1.1,2.2,2.4,2.3c1.3,0.1,2.5-0.6,2.7-1.9c0.3-1.9,0.5-3.8,0.7-5.7c0.2-1.1,0.3-2.3,0.5-3.4
		c0.4-2.1,1.9-3.1,3.8-3.5c1.4-0.3,2.8-0.2,4.2-0.2c2-0.1,4.6,2,4.9,3.9c0.5,2.9,1.1,5.7,1.6,8.6c0.3,2,1.2,3,2.9,2.9
		c1.2,0,2-0.7,2.5-2c0.4-1.2,0.7-2.4,1.2-3.6c1-2.3,3.8-3.4,6.1-2.6c2,0.7,2.7,2.4,2.8,4.3c0.1,4.6,0.2,9.2,0.1,13.8
		c-0.2,3.8-0.6,7.7-1.2,11.4c-0.8,5.1-3.1,9.7-6.4,13.7c-1.5,1.9-2.9,3.9-4.3,5.8c-2.6,3.5-3.6,7.5-3.6,11.7
		C94.1,105.7,94.1,107.5,94.1,109.5z M92.7,79.2c0-4,0-7.9,0-11.9c0-1.8-1.1-3-2.7-3c-1.6,0-2.6,1.2-2.6,2.9c0,4.9,0,9.7,0,14.6
		c0,3.1,0,6.2,0,9.3c0,1.5,1.1,2.7,2.6,2.7c1.6,0,2.7-1.1,2.7-2.9C92.7,87.1,92.7,83.2,92.7,79.2z M78.5,79.1c0,0-0.1,0-0.1,0
		c0-1.6,0-3.2,0-4.8c0-2.4,0-4.9,0-7.3c0-1.5-1.2-2.7-2.6-2.6c-1.5,0-2.7,1.2-2.6,2.8c0,6.3,0.1,12.7,0.1,19c0,1.7,0,3.4,0,5.1
		c0,0.5,0.2,1.1,0.4,1.6c0.6,1,1.8,1.4,2.9,1.1c1.2-0.3,1.9-1.3,1.9-2.7C78.5,87.2,78.5,83.2,78.5,79.1z M64.6,79.2
		c-0.1,0-0.1,0-0.2,0c0-4,0-7.9,0-11.9c0-1.6-1.1-2.7-2.6-2.7c-1.4,0-2.6,1.1-2.6,2.7c0,0.7,0,1.4,0,2.1c0.1,7.3,0.1,14.6,0.2,21.9
		c0,1.5,1,2.6,2.4,2.7c1.5,0.1,2.6-0.9,2.8-2.4c0-0.3,0-0.7,0-1.1C64.6,86.7,64.6,82.9,64.6,79.2z"/>
	<path d="M92.7,79.2c0,3.9,0,7.9,0,11.8c0,1.8-1.1,3-2.7,2.9c-1.5,0-2.6-1.1-2.6-2.7c0-3.1,0-6.2,0-9.3c0-4.9,0-9.7,0-14.6
		c0-1.8,1-2.9,2.6-2.9c1.6,0,2.7,1.1,2.7,3C92.7,71.3,92.7,75.3,92.7,79.2z"/>
	<path d="M78.5,79.1c0,4,0,8.1,0,12.1c0,1.4-0.7,2.3-1.9,2.7c-1.1,0.3-2.4-0.1-2.9-1.1c-0.3-0.5-0.4-1-0.4-1.6c-0.1-1.7,0-3.4,0-5.1
		c0-6.3-0.1-12.7-0.1-19c0-1.5,1.2-2.8,2.6-2.8c1.5,0,2.6,1.1,2.6,2.6c0,2.4,0,4.9,0,7.3c0,1.6,0,3.2,0,4.8
		C78.4,79.1,78.5,79.1,78.5,79.1z"/>
	<path d="M64.6,79.2c0,3.8,0,7.6,0,11.3c0,0.4,0,0.7,0,1.1c-0.2,1.5-1.3,2.4-2.8,2.4c-1.4-0.1-2.4-1.2-2.4-2.7
		c-0.1-7.3-0.1-14.6-0.2-21.9c0-0.7,0-1.4,0-2.1c0-1.5,1.2-2.7,2.6-2.7c1.5,0,2.6,1.1,2.6,2.7c0,4,0,7.9,0,11.9
		C64.5,79.2,64.5,79.2,64.6,79.2z"/>
</g>
</svg>
