<?xml version="1.0" encoding="utf-8"?>
<!-- Generator: Adobe Illustrator 21.0.0, SVG Export Plug-In . SVG Version: 6.00 Build 0)  -->
<svg version="1.1" id="Calque_1" xmlns="http://www.w3.org/2000/svg" xmlns:xlink="http://www.w3.org/1999/xlink" x="0px" y="0px"
	 viewBox="0 0 16 16" style="enable-background:new 0 0 16 16;" xml:space="preserve">
<style type="text/css">
	.st0{fill:#1D1D1B;}
</style>
<g>
	<path class="st0" d="M5.2,3.4c2.2,0,3.4,1.3,2.8,3.8C7.3,9.7,5.4,11,3.2,11C1,11-0.2,9.7,0.5,7.2C1.1,4.7,3,3.4,5.2,3.4z M5,4.5
		c-0.7,0-1.1,0.7-1.7,2.8c-0.6,2-0.6,2.8,0.1,2.8c0.6,0,1.1-0.7,1.7-2.8C5.7,5.2,5.7,4.5,5,4.5z"/>
	<path class="st0" d="M11.4,2.8c1.1,0,1.4,0.6,1.2,1.4L12,6.1c0.6-0.8,1.3-1,1.9-1c1.1,0,1.8,0.9,1.4,2.1l-0.7,2.2
		c-0.1,0.2,0,0.3,0.1,0.3c0.2,0,0.3-0.2,0.4-0.2c0.1,0,0.1,0.1,0.1,0.2c0,0.6-0.6,1.3-1.9,1.3c-1,0-1.6-0.5-1.6-1.2
		c0-0.3,0.1-0.6,0.2-0.9l0.6-1.6c0.1-0.4,0-0.5-0.3-0.5c-0.2,0-0.6,0.2-0.8,0.8v0l-0.7,2.2c-0.2,0.6,0.4,0.6,0.3,0.9
		c-0.1,0.2-0.3,0.3-0.7,0.3H7.9c-0.4,0-0.6-0.1-0.5-0.3c0.1-0.3,0.5-0.2,0.7-0.8l1.7-5.5c0.2-0.5-0.5-0.5-0.4-0.8
		C9.5,3.1,10.5,2.8,11.4,2.8z"/>
</g>
</svg>
